<?xml version="1.0" standalone="no"?><!DOCTYPE svg PUBLIC "-//W3C//DTD SVG 1.1//EN" "http://www.w3.org/Graphics/SVG/1.1/DTD/svg11.dtd"><svg t="1528711247683" class="icon" style="" viewBox="0 0 1024 1024" version="1.1" xmlns="http://www.w3.org/2000/svg" p-id="5582" xmlns:xlink="http://www.w3.org/1999/xlink" width="128" height="128"><defs><style type="text/css"></style></defs><path d="M77.577355 801.458531" p-id="5583" fill="#ffffff"></path><path d="M77.252966 784.434809" p-id="5584" fill="#ffffff"></path><path d="M951.509501 149.162228c-14.473643-14.487969-32.194236-21.940708-52.734038-21.940708L151.941016 127.22152c-20.539802 0-38.276768 7.452739-52.749388 21.940708-14.470573 14.45727-21.938662 32.194236-21.938662 52.731992l0 567.604412c0 20.538779 7.468089 38.275745 21.938662 52.734038 14.473643 14.487969 32.210609 21.940708 52.749388 21.940708l746.834446 0c20.539802 0 38.262442-7.452739 52.734038-21.940708 14.484899-14.458293 21.937638-32.19526 21.937638-52.734038L973.447139 201.89422C973.448162 181.356464 965.995423 163.619498 951.509501 149.162228zM316.236919 724.668611 196.743408 724.668611 196.743408 545.450856l119.492488 0L316.235896 724.668611zM495.48128 724.667587 375.988792 724.667587 375.988792 306.46588l119.492488 0L495.48128 724.667587zM674.712337 724.667587 555.220872 724.667587l0-298.723545 119.492488 0L674.71336 724.667587zM853.957721 724.667587 734.466256 724.667587 734.466256 246.698658l119.492488 0L853.958744 724.667587z" p-id="5585" fill="#ffffff"></path><path d="M973.448162 784.434809" p-id="5586" fill="#ffffff"></path></svg>