<?xml version="1.0" standalone="no"?><!DOCTYPE svg PUBLIC "-//W3C//DTD SVG 1.1//EN" "http://www.w3.org/Graphics/SVG/1.1/DTD/svg11.dtd"><svg t="1528710976159" class="icon" style="" viewBox="0 0 1024 1024" version="1.1" xmlns="http://www.w3.org/2000/svg" p-id="3439" xmlns:xlink="http://www.w3.org/1999/xlink" width="128" height="128"><defs><style type="text/css"></style></defs><path d="M506.453333 895.658667a362.666667 362.666667 0 1 1 4.138667-724.48h1.92l0.085333 0.128a362.666667 362.666667 0 0 1 51.413334 717.269333 316.330667 316.330667 0 0 1-57.557334 7.082667z m-34.389333-85.589334c0-28.16 0-62.677333 0.085333-103.509333l-50.432-66.517333 122.368-122.368 50.944 46.421333h115.242667l46.762667 46.72a277.333333 277.333333 0 0 0-277.674667-354.602667l-49.194667 48.725334 58.965334 58.922666-3.84 100.821334-99.413334 99.413333L238.506667 417.706667a277.333333 277.333333 0 0 0 233.557333 392.32z" fill="#ffffff" p-id="3440"></path></svg>