<?xml version="1.0" standalone="no"?><!DOCTYPE svg PUBLIC "-//W3C//DTD SVG 1.1//EN" "http://www.w3.org/Graphics/SVG/1.1/DTD/svg11.dtd"><svg t="1528711077452" class="icon" style="" viewBox="0 0 1024 1024" version="1.1" xmlns="http://www.w3.org/2000/svg" p-id="4140" xmlns:xlink="http://www.w3.org/1999/xlink" width="128" height="128"><defs><style type="text/css"></style></defs><path d="M147.669753 714.302439c-4.995122 0-9.990244-4.995122-14.985366-9.990244-99.902439-204.8-69.931707-324.682927-24.97561-394.614634C162.655119 214.790244 277.542924 179.82439 367.455119 179.82439c-24.97561-9.990244-49.95122-14.985366-79.921951-14.985366-69.931707 0-154.84878 34.965854-194.809756 129.873171C92.723412 299.707317 82.733168 299.707317 77.738046 299.707317 67.747802 299.707317 62.75268 294.712195 62.75268 284.721951 57.757558 199.804878 82.733168 119.882927 132.684387 69.931707 177.640485 24.97561 232.586826 0 297.523412 0 362.459997 0 437.386826 24.97561 512.313656 79.921951 542.284387 59.941463 632.196583 0 727.1039 0c74.926829 0 174.829268 39.960976 204.8 234.770732 0 4.995122 0 14.985366-9.990244 14.985366-4.995122 4.995122-14.985366 4.995122-19.980488 0-84.917073-69.931707-159.843902-84.917073-209.795122-84.917073-39.960976 0-69.931707 9.990244-94.907317 24.97561 99.902439-4.995122 274.731707 49.95122 339.668293 179.82439 34.965854 64.936585 44.956098 179.82439-74.926829 339.668293-4.995122 4.995122-9.990244 4.995122-19.980488 4.995122-4.995122 0-9.990244-9.990244-9.990244-14.985366-9.990244-234.770732-194.809756-374.634146-319.687805-384.62439C402.420973 329.678049 197.620973 429.580488 162.655119 699.317073 162.655119 709.307317 157.659997 714.302439 147.669753 714.302439 147.669753 714.302439 147.669753 714.302439 147.669753 714.302439L147.669753 714.302439zM517.308778 279.726829C517.308778 279.726829 517.308778 279.726829 517.308778 279.726829c134.868293 9.990244 314.692683 144.858537 344.663415 374.634146 69.931707-104.897561 84.917073-194.809756 49.95122-269.736585-64.936585-134.868293-284.721951-179.82439-349.658537-154.84878-4.995122 0-14.985366 0-14.985366-4.995122C542.284387 219.785366 537.289266 214.790244 542.284387 204.8c19.980488-44.956098 79.921951-74.926829 149.853659-74.926829 44.956098 0 119.882927 14.985366 194.809756 69.931707-24.97561-109.892683-79.921951-169.834146-164.839024-169.834146-99.902439 0-199.804878 74.926829-204.8 79.921951-4.995122 4.995122-14.985366 4.995122-19.980488 0C372.450241 14.985366 237.581948 9.990244 157.659997 89.912195c-29.970732 34.965854-49.95122 79.921951-59.941463 129.873171 49.95122-64.936585 129.873171-89.912195 189.814634-89.912195 54.946341 0 109.892683 19.980488 144.858537 54.946341 4.995122 4.995122 4.995122 9.990244 4.995122 19.980488C432.391705 209.795122 427.396583 214.790244 417.406339 209.795122c-14.985366 0-24.97561 0-39.960976 0-84.917073 0-189.814634 29.970732-244.760976 119.882927-49.95122 79.921951-44.956098 184.819512 9.990244 314.692683C197.620973 389.619512 397.425851 294.712195 517.308778 279.726829 512.313656 279.726829 517.308778 279.726829 517.308778 279.726829L517.308778 279.726829zM422.401461 1024 82.733168 1024c-9.990244 0-14.985366-4.995122-14.985366-14.985366 0-9.990244 4.995122-14.985366 14.985366-14.985366 14.985366 0 349.658537-34.965854 364.643902-614.4 0-4.995122 4.995122-9.990244 9.990244-14.985366L512.313656 334.673171c4.995122 0 9.990244 0 14.985366 0l44.956098 24.97561c4.995122 4.995122 4.995122 4.995122 9.990244 9.990244 0 19.980488 49.95122 484.526829-149.853659 649.365854C427.396583 1024 422.401461 1024 422.401461 1024L422.401461 1024zM182.635607 989.034146 412.411217 989.034146C582.245363 849.170732 557.269753 444.565854 552.274631 384.62439L517.308778 364.643902 477.347802 384.62439C462.362436 784.234146 292.52829 934.087805 182.635607 989.034146L182.635607 989.034146zM182.635607 989.034146" p-id="4141" fill="#ffffff"></path></svg>