<?xml version="1.0" standalone="no"?><!DOCTYPE svg PUBLIC "-//W3C//DTD SVG 1.1//EN" "http://www.w3.org/Graphics/SVG/1.1/DTD/svg11.dtd"><svg t="1528711036348" class="icon" style="" viewBox="0 0 1024 1024" version="1.1" xmlns="http://www.w3.org/2000/svg" p-id="3954" xmlns:xlink="http://www.w3.org/1999/xlink" width="128" height="128"><defs><style type="text/css"></style></defs><path d="M339.453928 1023.850356a31.464556 31.464556 0 0 1-28.605574-18.311663l-92.322284-200.199637-200.199638-92.306533a31.527564 31.527564 0 0 1-9.088885-50.886733l77.357915-77.357915a31.385796 31.385796 0 0 1 27.164268-8.84473l104.797844 16.460807c16.358419-16.799474 51.816099-52.359542 130.457799-130.205768L49.105778 193.808277a31.503936 31.503936 0 0 1-1.268034-45.743715L145.641714 50.252716a31.511812 31.511812 0 0 1 32.401798-7.560945l449.45878 152.565687 155.393165-155.385289c53.202272-53.170768 139.767212-53.178644 192.961608 0l8.135891 8.135892c53.170768 53.18652 53.170768 139.75146-0.015752 192.945856l-155.377412 155.393165 152.565686 449.450904a31.488184 31.488184 0 0 1-7.553068 32.401798l-97.80397 97.803969a31.49606 31.49606 0 0 1-45.751591-1.268033L561.674817 674.841877c-77.743838 78.547189-113.37479 114.036373-130.213643 130.442047l16.468682 104.821471a31.503936 31.503936 0 0 1-8.84473 27.164269l-77.357915 77.357915a31.527564 31.527564 0 0 1-22.273283 9.222777zM85.752731 674.731613l169.703828 78.255777a31.519688 31.519688 0 0 1 15.421177 15.421177l78.263653 169.703827 34.063631-34.063631-16.531691-105.223146a31.488184 31.488184 0 0 1 11.404425-29.45618c10.774346-9.742592 104.884479-104.506432 162.355535-162.623318a31.472432 31.472432 0 0 1 45.877606 1.142017l268.500172 300.043488 60.400921-60.400922L762.646302 398.064046a31.49606 31.49606 0 0 1 7.553068-32.401798l169.231269-169.247021c28.629202-28.637078 28.629202-75.231399 0-103.868477l-8.088636-8.088635c-28.65283-28.637078-75.247151-28.644954-103.884229-0.015752l-169.254896 169.223392a31.53544 31.53544 0 0 1-32.401799 7.553069L176.350175 108.653138l-60.408797 60.408797 300.051363 268.508047a31.49606 31.49606 0 0 1 1.142018 45.877607c-58.124762 57.471055-152.888602 151.581188-162.615442 162.347658a31.503936 31.503936 0 0 1-29.45618 11.396549l-105.231023-16.53169-34.079383 34.071507z" fill="#ffffff" p-id="3955"></path></svg>